# xmcd CD database file
#
# Track frame offsets:
#	150
#	8623
#	23254
#	37379
#	52254
#	67610
#	87710
#	103729
#	122969
#	138376
#	157213
#	171168
#
# Disc length: 2540 seconds
#
# Revision: 0
# Processed by: cddbd v1.5.2PL0 Copyright (c) Steve Scherf et al.
# Submitted via: CDex 1.51
#
DISCID=a409ea0c
DTITLE=Adia Victoria - Silences
DYEAR=2019
DGENRE=Blues
TTITLE0=Clean
TTITLE1=Bring Her Back
TTITLE2=Pacolet Road
TTITLE3=The City
TTITLE4=Different Kind of Love
TTITLE5=Devil Is A Lie
TTITLE6=The Needles Eye
TTITLE7=Cry Wolf
TTITLE8=Heathen
TTITLE9=Nice Folks
TTITLE10=Dope Queen Blues
TTITLE11=Get Lonely
EXTD=YEAR: 2019
EXTT0=
EXTT1=
EXTT2=
EXTT3=
EXTT4=
EXTT5=
EXTT6=
EXTT7=
EXTT8=
EXTT9=
EXTT10=
EXTT11=
PLAYORDER=
